<svg width="938" height="264" viewBox="0 0 938 264" fill="none" xmlns="http://www.w3.org/2000/svg">
    <path fill-rule="evenodd" clip-rule="evenodd"
          d="M904.5 162.659C904.5 162.981 904.276 163.242 904 163.242C896.235 163.242 892.096 165.241 885.479 168.438C884.962 168.688 884.43 168.945 883.879 169.209C882.957 169.652 881.908 169.379 880.859 168.752C879.799 168.118 878.642 167.067 877.437 165.752C875.022 163.117 872.319 159.318 869.681 155.342C867.912 152.675 866.16 149.911 864.538 147.35C863.74 146.092 862.974 144.882 862.252 143.758C861.153 142.047 860.158 140.533 859.305 139.329C858.444 138.113 857.756 137.255 857.27 136.822C844.304 125.267 826.185 134.676 823.081 150.95C822.317 154.959 821.492 157.971 820.594 160.179C819.697 162.384 818.709 163.835 817.596 164.659C815.323 166.342 812.799 165.243 810.231 163.636C809.465 163.156 808.687 162.627 807.889 162.084C805.926 160.749 803.848 159.336 801.566 158.403C798.406 157.112 794.935 156.789 791.06 159.047C789.877 159.737 788.211 161.382 786.343 163.525C784.49 165.652 782.485 168.215 780.63 170.682C778.779 173.144 777.082 175.503 775.843 177.227L775.838 177.234C775.219 178.094 774.712 178.8 774.358 179.277C774.182 179.514 774.038 179.704 773.935 179.83C773.887 179.889 773.832 179.952 773.782 180.001L773.78 180.002C773.764 180.018 773.701 180.078 773.614 180.116C773.581 180.131 773.431 180.196 773.252 180.117C773.015 180.012 772.944 179.766 772.93 179.638C772.311 173.868 769.533 167.646 765.621 163.101C761.706 158.552 756.733 155.765 751.74 156.66C743.661 158.108 738.995 163.79 735.106 170.626C733.862 172.813 732.711 175.091 731.553 177.384C730.89 178.698 730.224 180.016 729.537 181.325C727.662 184.896 725.648 188.353 723.163 191.25C722.855 191.608 722.512 191.837 722.136 191.92C721.762 192.002 721.402 191.928 721.072 191.773C720.435 191.473 719.836 190.83 719.306 190.179C719.035 189.846 718.766 189.49 718.508 189.148L718.506 189.145C718.246 188.801 717.998 188.472 717.755 188.175C717.512 187.876 717.285 187.622 717.073 187.429C716.858 187.233 716.684 187.123 716.546 187.077C714.67 186.453 712.152 186.31 709.597 186.471C707.051 186.633 704.513 187.094 702.619 187.646C699.58 188.531 695.722 190.861 691.415 193.829C689.077 195.44 686.645 197.211 684.157 199.023C682.05 200.558 679.902 202.121 677.738 203.642C673.055 206.932 668.359 209.969 664.073 211.859C659.806 213.741 655.841 214.535 652.674 213.176C650.253 212.136 648.116 211.026 646.105 209.95C645.752 209.761 645.403 209.574 645.058 209.388C643.43 208.512 641.873 207.676 640.282 206.925C636.442 205.114 632.42 203.819 626.894 203.819C624.353 203.819 622.918 204.452 621.967 205.235C621.485 205.631 621.11 206.081 620.766 206.549C620.617 206.753 620.476 206.957 620.333 207.164L620.266 207.261C620.102 207.498 619.933 207.74 619.756 207.969C619.399 208.429 618.992 208.864 618.457 209.176C617.919 209.49 617.283 209.663 616.488 209.655C614.925 209.64 612.704 208.923 609.281 207.15C604.167 204.501 599.576 200.26 595.041 195.86C594.511 195.346 593.982 194.83 593.452 194.313C589.435 190.395 585.416 186.473 581.019 183.449C579.581 182.46 577.038 180.301 573.826 177.574C572.707 176.623 571.507 175.604 570.243 174.54C565.332 170.409 559.431 165.582 553.528 161.462C547.615 157.335 541.743 153.946 536.884 152.654C534.456 152.008 532.324 151.897 530.583 152.44C528.862 152.975 527.499 154.155 526.584 156.169C523.827 162.239 524.022 168.92 524.222 175.745C524.238 176.278 524.253 176.812 524.268 177.346C524.463 184.663 524.391 192.076 520.089 198.522C514.097 207.499 509.877 218.605 509.877 230.287C509.877 233.257 509.135 242.057 508.019 249.736C507.461 253.575 506.804 257.172 506.091 259.635C505.738 260.853 505.353 261.862 504.923 262.478C504.709 262.786 504.437 263.064 504.098 263.162C503.724 263.271 503.376 263.134 503.093 262.859C500.369 260.213 495.832 258.904 490.344 258.257C485.648 257.703 480.349 257.64 475.051 257.577C474.18 257.567 473.31 257.557 472.442 257.544C466.314 257.456 460.318 257.259 455.501 256.161C450.714 255.07 446.904 253.048 445.407 249.122C444.477 246.683 444.088 244.326 443.819 242.183C443.757 241.691 443.702 241.214 443.648 240.752C443.465 239.174 443.302 237.767 442.966 236.51C442.544 234.927 441.861 233.647 440.539 232.696C439.194 231.729 437.138 231.067 433.908 230.869C429.332 230.589 426.232 229.641 424.129 228.032C422 226.402 420.951 224.14 420.395 221.408C419.915 219.053 419.793 216.299 419.659 213.265C419.64 212.827 419.62 212.383 419.599 211.933C419.431 208.347 419.176 204.35 418.295 199.988C418.153 199.286 418.008 198.245 417.844 197.064C417.796 196.719 417.746 196.362 417.695 195.998C417.463 194.367 417.185 192.56 416.819 190.92C416.449 189.264 416.003 187.846 415.46 186.952C415.19 186.509 414.922 186.237 414.664 186.106C414.422 185.985 414.148 185.965 413.804 186.121C405.486 189.891 396.93 192.529 388.349 195.176L387.798 195.346C381.018 197.437 376.364 198.569 373.079 198.737C369.776 198.905 367.75 198.104 366.356 196.202C365.677 195.275 365.173 194.12 364.732 192.777C364.291 191.435 363.903 189.868 363.47 188.107L363.416 187.887C362.558 184.393 361.497 180.073 359.488 174.923C357.75 170.469 355.341 167.416 352.591 164.682C351.36 163.457 350.066 162.302 348.729 161.108C348.568 160.964 348.406 160.82 348.244 160.675C346.74 159.33 345.19 157.925 343.652 156.332C342.534 155.174 340.773 153.962 338.701 152.674C337.791 152.109 336.807 151.521 335.801 150.919C334.565 150.181 333.297 149.423 332.094 148.664C329.883 147.27 327.767 145.798 326.156 144.237C324.56 142.69 323.369 140.97 323.176 139.057C322.788 135.212 321.482 133.44 319.809 132.8C318.064 132.132 315.75 132.621 313.231 133.792C308.219 136.123 302.829 140.945 300.61 143.013C297.905 145.535 295.228 147.995 292.587 150.422C273.243 168.195 255.806 184.216 243.022 210.288L242.926 210.483C241.754 212.876 237.684 221.186 233.741 226.537C232.724 227.917 231.701 229.121 230.725 229.979C229.763 230.825 228.774 231.401 227.837 231.377C226.835 231.352 226.04 230.652 225.495 229.355C224.961 228.087 224.63 226.185 224.517 223.554C224.178 215.654 221.685 207.21 218.463 199.009C215.946 192.603 213 186.384 210.315 180.714C209.563 179.126 208.831 177.581 208.135 176.087C195.019 147.945 180.479 118.949 157.67 100.393C156.016 99.0464 154.536 97.8733 153.194 96.8093C149.62 93.975 147.022 91.915 144.685 89.4178C141.447 85.9596 138.704 81.6659 134.475 73.3484C134.162 72.7342 133.849 72.1156 133.533 71.4938C129.218 62.9803 124.606 53.8832 118.92 47.6094C115.878 44.2526 112.55 41.7313 108.823 40.5399C105.102 39.3507 100.947 39.4747 96.2258 41.4755C94.5811 42.1725 92.8217 43.5864 91.0313 45.4592C89.2459 47.3268 87.4565 49.622 85.7499 52.0433C82.9652 55.9939 80.4247 60.2445 78.4944 63.4742C78.057 64.2062 77.6509 64.8857 77.2803 65.4974C63.4958 88.2544 45.8335 105.999 27.9631 123.954C25.0854 126.845 22.2023 129.741 19.3291 132.665C19.1211 132.877 18.8052 132.852 18.6236 132.609C18.442 132.367 18.4634 131.999 18.6714 131.787C21.5532 128.855 24.4416 125.953 27.3218 123.059C45.1967 105.098 62.7555 87.4559 76.4634 64.8254C76.8286 64.2225 77.2307 63.5496 77.6652 62.8225C79.5952 59.5932 82.1644 55.2942 84.9772 51.3036C86.7015 48.8572 88.5265 46.5134 90.3633 44.592C92.1951 42.6758 94.066 41.1507 95.884 40.3803C100.782 38.3048 105.149 38.1573 109.087 39.416C113.019 40.6726 116.486 43.3186 119.608 46.7631C125.401 53.1553 130.082 62.3909 134.377 70.8662C134.698 71.5003 135.017 72.1302 135.335 72.7543C139.549 81.0417 142.232 85.2176 145.36 88.5588C147.641 90.9949 150.156 92.9891 153.698 95.7986C155.049 96.8697 156.549 98.0593 158.243 99.4371C181.269 118.17 195.906 147.405 209.013 175.531C209.703 177.011 210.43 178.546 211.179 180.127C213.867 185.802 216.838 192.073 219.372 198.523C222.613 206.771 225.168 215.375 225.516 223.495C225.627 226.073 225.948 227.787 226.392 228.842C226.825 229.869 227.334 230.199 227.859 230.212C228.45 230.227 229.212 229.849 230.122 229.049C231.018 228.262 231.988 227.127 232.982 225.778C236.86 220.515 240.89 212.289 242.063 209.895L242.154 209.71C255.041 183.428 272.637 167.263 291.973 149.501C294.614 147.075 297.287 144.619 299.986 142.103C302.202 140.037 307.695 135.112 312.86 132.71C315.429 131.515 318.027 130.891 320.121 131.693C322.29 132.523 323.753 134.803 324.169 138.921C324.315 140.372 325.249 141.842 326.796 143.341C328.327 144.825 330.371 146.252 332.57 147.639C333.789 148.408 335.018 149.142 336.228 149.865C337.228 150.462 338.215 151.052 339.171 151.646C341.239 152.931 343.099 154.2 344.316 155.461C345.825 157.024 347.35 158.407 348.853 159.751C349.015 159.896 349.177 160.04 349.338 160.184C350.672 161.375 351.988 162.55 353.24 163.795C356.057 166.596 358.58 169.78 360.398 174.441C362.438 179.67 363.516 184.06 364.375 187.556L364.431 187.786C364.867 189.558 365.244 191.074 365.666 192.36C366.087 193.645 366.542 194.662 367.116 195.445C368.229 196.963 369.888 197.733 373.035 197.572C376.199 197.411 380.758 196.312 387.542 194.219L388.071 194.056C396.668 191.405 405.176 188.78 413.442 185.034C414.01 184.777 414.559 184.783 415.061 185.037C415.548 185.282 415.946 185.736 416.276 186.278C416.93 187.354 417.412 188.947 417.787 190.626C418.165 192.321 418.449 194.172 418.681 195.808C418.736 196.19 418.787 196.56 418.836 196.912C418.999 198.082 419.135 199.063 419.268 199.721C420.17 204.187 420.429 208.268 420.597 211.87C420.619 212.325 420.639 212.771 420.658 213.209C420.794 216.26 420.911 218.895 421.368 221.139C421.883 223.67 422.819 225.635 424.678 227.058C426.562 228.5 429.453 229.429 433.961 229.706C437.263 229.908 439.513 230.589 441.064 231.704C442.639 232.837 443.446 234.381 443.921 236.164C444.284 237.524 444.462 239.062 444.647 240.659C444.699 241.107 444.751 241.56 444.808 242.014C445.073 244.121 445.446 246.355 446.321 248.649C447.602 252.008 450.95 253.936 455.693 255.018C460.407 256.092 466.314 256.291 472.454 256.379C473.317 256.391 474.185 256.402 475.054 256.412C480.348 256.474 485.7 256.538 490.444 257.097C495.947 257.747 500.758 259.074 503.733 261.963C503.826 262.054 503.855 262.032 503.856 262.032C503.891 262.021 503.992 261.966 504.147 261.744C504.456 261.3 504.795 260.463 505.143 259.262C505.831 256.89 506.477 253.369 507.033 249.541C508.145 241.887 508.877 233.161 508.877 230.287C508.877 218.279 513.211 206.929 519.3 197.806C523.359 191.724 523.464 184.712 523.268 177.382C523.254 176.834 523.237 176.285 523.221 175.733C523.02 168.97 522.812 161.981 525.7 155.624C526.75 153.313 528.344 151.93 530.324 151.314C532.284 150.703 534.596 150.85 537.107 151.518C542.126 152.853 548.11 156.322 554.042 160.462C559.983 164.609 565.912 169.459 570.828 173.596C572.12 174.682 573.338 175.717 574.467 176.676C577.657 179.384 580.134 181.488 581.528 182.446C586 185.521 590.086 189.509 594.096 193.421C594.625 193.938 595.153 194.453 595.681 194.965C600.22 199.368 604.715 203.51 609.687 206.085C613.09 207.848 615.151 208.476 616.497 208.49C617.157 208.496 617.632 208.354 618.009 208.134C618.39 207.912 618.701 207.592 619.013 207.189C619.17 206.985 619.324 206.767 619.487 206.53C619.649 206.296 619.821 206.044 620.006 205.792C620.379 205.284 620.815 204.756 621.39 204.283C622.551 203.327 624.202 202.653 626.894 202.653C632.576 202.653 636.726 203.991 640.657 205.845C642.273 206.607 643.856 207.458 645.484 208.334C645.828 208.519 646.174 208.704 646.522 208.891C648.527 209.963 650.636 211.058 653.02 212.082C655.833 213.29 659.505 212.628 663.719 210.769C667.916 208.918 672.547 205.928 677.222 202.643C679.345 201.152 681.49 199.59 683.604 198.051C686.113 196.224 688.577 194.43 690.906 192.826C695.209 189.86 699.18 187.446 702.376 186.515C704.336 185.944 706.937 185.473 709.543 185.308C712.141 185.143 714.788 185.28 716.821 185.957C717.133 186.061 717.425 186.271 717.689 186.511C717.957 186.755 718.222 187.055 718.48 187.372C718.736 187.686 718.996 188.029 719.25 188.367L719.259 188.379C719.519 188.723 719.776 189.062 720.032 189.377C720.558 190.023 721.028 190.495 721.446 190.692C721.644 190.786 721.808 190.806 721.951 190.775C722.093 190.744 722.262 190.651 722.455 190.426C724.856 187.628 726.821 184.266 728.684 180.717C729.352 179.445 730.009 178.144 730.669 176.837C731.839 174.522 733.016 172.191 734.272 169.983C738.227 163.031 743.103 157.029 751.588 155.508C757.007 154.537 762.281 157.574 766.327 162.275C770.109 166.67 772.886 172.59 773.765 178.293C774.1 177.836 774.542 177.221 775.072 176.485L775.078 176.476C776.317 174.753 778.019 172.386 779.878 169.914C781.74 167.438 783.763 164.851 785.641 162.695C787.505 160.556 789.272 158.786 790.613 158.005C794.783 155.575 798.544 155.933 801.897 157.304C804.275 158.275 806.489 159.781 808.481 161.135C809.257 161.663 809.999 162.167 810.704 162.609C813.304 164.236 815.322 164.963 817.059 163.676C817.951 163.015 818.836 161.782 819.69 159.68C820.543 157.582 821.349 154.664 822.105 150.698C825.357 133.646 844.294 123.791 857.878 135.896C858.464 136.419 859.216 137.373 860.076 138.587C860.945 139.813 861.952 141.346 863.053 143.06C863.782 144.196 864.552 145.412 865.352 146.673C866.971 149.228 868.71 151.972 870.472 154.629C873.106 158.599 875.768 162.334 878.12 164.901C879.298 166.186 880.376 167.153 881.315 167.715C882.265 168.283 882.979 168.381 883.498 168.132C884.052 167.866 884.589 167.607 885.111 167.354C891.729 164.156 896.032 162.076 904 162.076C904.276 162.076 904.5 162.337 904.5 162.659Z"
          fill="white"/>
    <path d="M74.0873 10.8352H76.8749C78.5653 10.8352 79.3288 9.85441 79.3288 8.55498C79.3288 7.24313 78.5404 6.50238 77.8195 6.45686V6.37409C78.4871 6.17545 79.0447 5.64575 79.0447 4.58634C79.0447 3.33243 78.2989 2.35993 76.7506 2.35993H74.0873V10.8352ZM75.1846 9.73854V7.02381H76.8075C77.6881 7.02381 78.2386 7.68593 78.2386 8.4929C78.2386 9.20469 77.8231 9.73854 76.7684 9.73854H75.1846ZM75.1846 6.02647V3.4483H76.6832C77.5532 3.4483 77.9687 3.98215 77.9687 4.68566C77.9687 5.50504 77.3934 6.02647 76.6548 6.02647H75.1846Z"
          fill="white"/>
    <path d="M82.1303 10.8352H86.7325V9.7344H83.2275V7.13968H86.452V6.04303H83.2275V3.46072H86.6899V2.35993H82.1303V10.8352Z"
          fill="white"/>
    <path d="M89.1052 10.8352H89.4177C91.0725 10.8352 91.4703 9.40333 91.5662 6.68033L91.6798 3.44417H94.162V10.8352H95.2451V2.35993H90.6464L90.5221 6.34098C90.444 8.795 90.1883 9.69302 89.3183 9.71784L89.1052 9.72612V10.8352Z"
          fill="white"/>
    <path d="M98.3431 2.35993V10.8352H99.3517L103.048 4.61945H103.116V10.8352H104.213V2.35993H103.198L99.4973 8.58395H99.4298V2.35993H98.3431Z"
          fill="white"/>
    <path d="M111.621 10.8352H112.96L109.959 6.192L112.978 2.35993H111.618L108.788 5.93957H108.411V2.35993H107.314V10.8352H108.411V7.03622H109.164L111.621 10.8352Z"
          fill="white"/>
    <path d="M115.572 2.35993V10.8352H116.58L120.277 4.61945H120.344V10.8352H121.442V2.35993H120.426L116.726 8.58395H116.658V2.35993H115.572Z"
          fill="white"/>
    <path d="M124.542 2.35993V10.8352H125.551L129.248 4.61945H129.315V10.8352H130.412V2.35993H129.397L125.696 8.58395H125.629V2.35993H124.542ZM128.175 0.208008C128.175 0.625977 127.976 0.994287 127.479 0.994287C126.975 0.994287 126.787 0.621839 126.787 0.208008H125.917C125.917 1.13913 126.524 1.78057 127.479 1.78057C128.442 1.78057 129.049 1.13913 129.049 0.208008H128.175Z"
          fill="white"/>
    <path d="M69.5385 24.8194H70.6358V21.1239H74.2615V24.8194H75.3623V16.3441H74.2615V20.0272H70.6358V16.3441H69.5385V24.8194Z"
          fill="white"/>
    <path d="M84.7778 20.5817C84.7778 17.8711 83.3858 16.2282 81.5037 16.2282C79.6144 16.2282 78.226 17.8711 78.226 20.5817C78.226 23.2882 79.6144 24.9352 81.5037 24.9352C83.3858 24.9352 84.7778 23.2923 84.7778 20.5817ZM83.6912 20.5817C83.6912 22.6468 82.7537 23.7682 81.5037 23.7682C80.2501 23.7682 79.3162 22.6468 79.3162 20.5817C79.3162 18.5167 80.2501 17.3952 81.5037 17.3952C82.7537 17.3952 83.6912 18.5167 83.6912 20.5817Z"
          fill="white"/>
    <path d="M87.6459 24.8194H90.4335C92.1239 24.8194 92.8874 23.8386 92.8874 22.5392C92.8874 21.2273 92.099 20.4866 91.3781 20.441V20.3583C92.0457 20.1596 92.6033 19.6299 92.6033 18.5705C92.6033 17.3166 91.8575 16.3441 90.3092 16.3441H87.6459V24.8194ZM88.7432 23.7227V21.008H90.366C91.2467 21.008 91.7972 21.6701 91.7972 22.4771C91.7972 23.1889 91.3817 23.7227 90.327 23.7227H88.7432ZM88.7432 20.0106V17.4325H90.2418C91.1118 17.4325 91.5273 17.9663 91.5273 18.6698C91.5273 19.4892 90.952 20.0106 90.2133 20.0106H88.7432Z"
          fill="white"/>
    <path d="M100.224 16.3441H95.6888V24.8194H96.7861V17.4449H100.224V16.3441Z" fill="white"/>
    <path d="M108.975 20.5817C108.975 17.8711 107.583 16.2282 105.701 16.2282C103.812 16.2282 102.423 17.8711 102.423 20.5817C102.423 23.2882 103.812 24.9352 105.701 24.9352C107.583 24.9352 108.975 23.2923 108.975 20.5817ZM107.888 20.5817C107.888 22.6468 106.951 23.7682 105.701 23.7682C104.447 23.7682 103.513 22.6468 103.513 20.5817C103.513 18.5167 104.447 17.3952 105.701 17.3952C106.951 17.3952 107.888 18.5167 107.888 20.5817Z"
          fill="white"/>
    <path d="M111.843 24.8194H112.94V21.8398H114.432C116.119 21.8398 116.953 20.6521 116.953 19.0878C116.953 17.5277 116.126 16.3441 114.435 16.3441H111.843V24.8194ZM112.94 20.7555V17.4408H114.318C115.405 17.4408 115.849 18.1277 115.849 19.0878C115.849 20.0479 115.405 20.7555 114.332 20.7555H112.94Z"
          fill="white"/>
    <path d="M126.057 20.5817C126.057 17.8711 124.665 16.2282 122.783 16.2282C120.894 16.2282 119.505 17.8711 119.505 20.5817C119.505 23.2882 120.894 24.9352 122.783 24.9352C124.665 24.9352 126.057 23.2923 126.057 20.5817ZM124.97 20.5817C124.97 22.6468 124.033 23.7682 122.783 23.7682C121.529 23.7682 120.595 22.6468 120.595 20.5817C120.595 18.5167 121.529 17.3952 122.783 17.3952C124.033 17.3952 124.97 18.5167 124.97 20.5817Z"
          fill="white"/>
    <path d="M128.375 26.8678H129.426V24.8194H134.309V26.8554H135.36V23.7351H134.536V16.3441H130.051L129.88 19.9237C129.77 22.2826 129.341 23.2551 128.854 23.7351H128.375V26.8678ZM130.147 23.7351C130.562 22.9613 130.843 21.7156 130.932 19.9237L131.045 17.4449H133.485V23.7351H130.147Z"
          fill="white"/>
    <path d="M5.88106 145.696H0.270264V154.171H1.36401V146.788H4.78731V154.171H5.88106V145.696Z" fill="white"/>
    <path d="M15.0995 148.452C14.8509 146.639 13.6328 145.58 12.0952 145.58C10.2131 145.58 8.8246 147.223 8.8246 149.934C8.8246 152.644 10.206 154.287 12.0952 154.287C13.6932 154.287 14.8615 153.12 15.0995 151.444L13.9915 151.44C13.8033 152.524 13.022 153.12 12.1023 153.12C10.8558 153.12 9.91479 152.007 9.91479 149.934C9.91479 147.877 10.8523 146.747 12.1058 146.747C13.0327 146.747 13.8104 147.355 13.9915 148.452H15.0995Z"
          fill="white"/>
    <path d="M22.22 154.171H23.5588L20.5581 149.528L23.5765 145.696H22.2165L19.3862 149.276H19.0098V145.696H17.9125V154.171H19.0098V150.372H19.7626L22.22 154.171Z"
          fill="white"/>
    <path d="M32.1264 149.934C32.1264 147.223 30.7344 145.58 28.8523 145.58C26.9631 145.58 25.5746 147.223 25.5746 149.934C25.5746 152.64 26.9631 154.287 28.8523 154.287C30.7344 154.287 32.1264 152.644 32.1264 149.934ZM31.0398 149.934C31.0398 151.999 30.1023 153.12 28.8523 153.12C27.5987 153.12 26.6648 151.999 26.6648 149.934C26.6648 147.869 27.5987 146.747 28.8523 146.747C30.1023 146.747 31.0398 147.869 31.0398 149.934Z"
          fill="white"/>
    <path d="M34.9945 154.171H37.7822C39.4725 154.171 40.236 153.19 40.236 151.891C40.236 150.579 39.4476 149.838 38.7268 149.793V149.71C39.3944 149.511 39.9519 148.982 39.9519 147.922C39.9519 146.668 39.2062 145.696 37.6579 145.696H34.9945V154.171ZM36.0918 153.075V150.36H37.7147C38.5954 150.36 39.1458 151.022 39.1458 151.829C39.1458 152.541 38.7303 153.075 37.6756 153.075H36.0918ZM36.0918 149.362V146.784H37.5904C38.4604 146.784 38.8759 147.318 38.8759 148.022C38.8759 148.841 38.3006 149.362 37.562 149.362H36.0918Z"
          fill="white"/>
    <path d="M163.482 178.259H165.748V185.634H166.842V178.259H169.111V177.159H163.482V178.259Z" fill="white"/>
    <path d="M171.855 185.634H174.642C176.333 185.634 177.096 184.653 177.096 183.354C177.096 182.042 176.308 181.301 175.587 181.256V181.173C176.254 180.974 176.812 180.445 176.812 179.385C176.812 178.131 176.066 177.159 174.518 177.159H171.855V185.634ZM172.952 184.537V181.823H174.575C175.455 181.823 176.006 182.485 176.006 183.292C176.006 184.003 175.59 184.537 174.536 184.537H172.952ZM172.952 180.825V178.247H174.451C175.321 178.247 175.736 178.781 175.736 179.484C175.736 180.304 175.161 180.825 174.422 180.825H172.952Z"
          fill="white"/>
    <path d="M179.898 185.634H184.5V184.533H180.995V181.938H184.219V180.842H180.995V178.259H184.457V177.159H179.898V185.634Z"
          fill="white"/>
    <path d="M187.423 185.634H188.52V182.654H190.012C191.699 182.654 192.533 181.467 192.533 179.902C192.533 178.342 191.706 177.159 190.015 177.159H187.423V185.634ZM188.52 181.57V178.255H189.898C190.985 178.255 191.429 178.942 191.429 179.902C191.429 180.862 190.985 181.57 189.912 181.57H188.52Z"
          fill="white"/>
    <path d="M196.427 180.577V177.159H195.327V185.634H198.05C199.67 185.634 200.596 184.583 200.593 183.064C200.596 181.549 199.67 180.577 198.05 180.577H196.427ZM196.427 181.653H198.05C198.991 181.653 199.51 182.282 199.51 183.048C199.51 183.834 198.991 184.558 198.05 184.558H196.427V181.653Z"
          fill="white"/>
    <path d="M261.651 211.272V202.797H259.059C257.372 202.797 256.541 203.893 256.541 205.453C256.541 206.591 256.985 207.456 257.877 207.841L256.264 211.272H257.514L258.992 208.065C259.017 208.065 259.038 208.065 259.063 208.065H260.554V211.272H261.651ZM260.554 206.964H259.162C258.093 206.964 257.646 206.409 257.646 205.453C257.646 204.493 258.093 203.893 259.176 203.893H260.554V206.964Z"
          fill="white"/>
    <path d="M264.746 211.272H265.843V208.292H267.335C269.022 208.292 269.856 207.105 269.856 205.54C269.856 203.98 269.029 202.797 267.338 202.797H264.746V211.272ZM265.843 207.208V203.893H267.221C268.308 203.893 268.752 204.58 268.752 205.54C268.752 206.5 268.308 207.208 267.235 207.208H265.843Z"
          fill="white"/>
    <path d="M278.96 207.034C278.96 204.324 277.568 202.681 275.686 202.681C273.797 202.681 272.408 204.324 272.408 207.034C272.408 209.741 273.797 211.388 275.686 211.388C277.568 211.388 278.96 209.745 278.96 207.034ZM277.873 207.034C277.873 209.099 276.936 210.221 275.686 210.221C274.432 210.221 273.498 209.099 273.498 207.034C273.498 204.969 274.432 203.848 275.686 203.848C276.936 203.848 277.873 204.969 277.873 207.034Z"
          fill="white"/>
    <path d="M287.868 205.553C287.62 203.74 286.402 202.681 284.864 202.681C282.982 202.681 281.594 204.324 281.594 207.034C281.594 209.745 282.975 211.388 284.864 211.388C286.462 211.388 287.631 210.221 287.868 208.545L286.76 208.541C286.572 209.625 285.791 210.221 284.871 210.221C283.625 210.221 282.684 209.107 282.684 207.034C282.684 204.977 283.621 203.848 284.875 203.848C285.802 203.848 286.579 204.456 286.76 205.553H287.868Z"
          fill="white"/>
    <path d="M290.131 211.272H290.444C292.098 211.272 292.496 209.84 292.592 207.117L292.706 203.881H295.188V211.272H296.271V202.797H291.672L291.548 206.778C291.47 209.232 291.214 210.13 290.344 210.154L290.131 210.163V211.272Z"
          fill="white"/>
    <path d="M299.983 211.272L300.651 209.029H303.492L304.156 211.272H305.321L302.704 202.797H301.436L298.819 211.272H299.983ZM300.971 207.953L302.043 204.336H302.1L303.172 207.953H300.971Z"
          fill="white"/>
    <path d="M307.871 211.272H310.659C312.349 211.272 313.112 210.291 313.112 208.992C313.112 207.68 312.324 206.939 311.603 206.893V206.811C312.271 206.612 312.828 206.082 312.828 205.023C312.828 203.769 312.083 202.797 310.534 202.797H307.871V211.272ZM308.968 210.175V207.46H310.591C311.472 207.46 312.022 208.123 312.022 208.93C312.022 209.641 311.607 210.175 310.552 210.175H308.968ZM308.968 206.463V203.885H310.467C311.337 203.885 311.752 204.419 311.752 205.122C311.752 205.942 311.177 206.463 310.438 206.463H308.968Z"
          fill="white"/>
    <path d="M315.363 211.272H315.676C317.331 211.272 317.729 209.84 317.824 207.117L317.938 203.881H320.42V211.272H321.503V202.797H316.905L316.78 206.778C316.702 209.232 316.447 210.13 315.577 210.154L315.363 210.163V211.272Z"
          fill="white"/>
    <path d="M325.709 206.215V202.797H324.609V211.272H327.332C328.952 211.272 329.878 210.221 329.875 208.702C329.878 207.187 328.952 206.215 327.332 206.215H325.709ZM325.709 207.291H327.332C328.273 207.291 328.792 207.92 328.792 208.685C328.792 209.472 328.273 210.196 327.332 210.196H325.709V207.291Z"
          fill="white"/>
    <path d="M339.802 132.876V141.351H340.846V135.214H340.914L343.059 141.339H343.925L346.07 135.218H346.137V141.351H347.181V132.876H345.85L343.534 139.464H343.449L341.134 132.876H339.802Z"
          fill="white"/>
    <path d="M351.077 141.351L351.744 139.108H354.585L355.249 141.351H356.414L353.797 132.876H352.529L349.912 141.351H351.077ZM352.064 138.032L353.136 134.416H353.193L354.266 138.032H352.064Z"
          fill="white"/>
    <path d="M358.964 141.351H360.062V137.656H363.687V141.351H364.788V132.876H363.687V136.559H360.062V132.876H358.964V141.351Z"
          fill="white"/>
    <path d="M367.527 133.977H369.793V141.351H370.887V133.977H373.156V132.876H367.527V133.977Z" fill="white"/>
    <path d="M376.415 141.467H376.912C378.048 141.467 378.425 140.727 378.744 139.882L381.258 132.876H380.108L378.41 137.776L376.503 132.876H375.339L377.896 139.237L377.793 139.539C377.636 139.982 377.395 140.342 376.851 140.342H376.415V141.467Z"
          fill="white"/>
    <path d="M383.796 141.351H384.894V138.372H386.385C388.072 138.372 388.906 137.184 388.906 135.62C388.906 134.06 388.079 132.876 386.389 132.876H383.796V141.351ZM384.894 137.288V133.973H386.271C387.358 133.973 387.802 134.66 387.802 135.62C387.802 136.58 387.358 137.288 386.286 137.288H384.894Z"
          fill="white"/>
    <path d="M398.01 137.114C398.01 134.403 396.618 132.76 394.736 132.76C392.847 132.76 391.458 134.403 391.458 137.114C391.458 139.82 392.847 141.467 394.736 141.467C396.618 141.467 398.01 139.824 398.01 137.114ZM396.924 137.114C396.924 139.179 395.986 140.3 394.736 140.3C393.483 140.3 392.549 139.179 392.549 137.114C392.549 135.049 393.483 133.927 394.736 133.927C395.986 133.927 396.924 135.049 396.924 137.114Z"
          fill="white"/>
    <path d="M400.878 141.351H403.666C405.356 141.351 406.12 140.371 406.12 139.071C406.12 137.759 405.331 137.019 404.611 136.973V136.89C405.278 136.692 405.836 136.162 405.836 135.103C405.836 133.849 405.09 132.876 403.542 132.876H400.878V141.351ZM401.976 140.255V137.54H403.598C404.479 137.54 405.03 138.202 405.03 139.009C405.03 139.721 404.614 140.255 403.559 140.255H401.976ZM401.976 136.543V133.965H403.474C404.344 133.965 404.76 134.498 404.76 135.202C404.76 136.021 404.184 136.543 403.446 136.543H401.976Z"
          fill="white"/>
    <path d="M415.239 137.114C415.239 134.403 413.847 132.76 411.965 132.76C410.075 132.76 408.687 134.403 408.687 137.114C408.687 139.82 410.075 141.467 411.965 141.467C413.847 141.467 415.239 139.824 415.239 137.114ZM414.152 137.114C414.152 139.179 413.215 140.3 411.965 140.3C410.711 140.3 409.777 139.179 409.777 137.114C409.777 135.049 410.711 133.927 411.965 133.927C413.215 133.927 414.152 135.049 414.152 137.114Z"
          fill="white"/>
    <path d="M396.62 173.985H397.958L394.958 169.342L397.976 165.509H396.616L393.786 169.089H393.409V165.509H392.312V173.985H393.409V170.186H394.162L396.62 173.985Z"
          fill="white"/>
    <path d="M406.526 169.747C406.526 167.036 405.134 165.394 403.252 165.394C401.363 165.394 399.974 167.036 399.974 169.747C399.974 172.454 401.363 174.101 403.252 174.101C405.134 174.101 406.526 172.458 406.526 169.747ZM405.439 169.747C405.439 171.812 404.502 172.934 403.252 172.934C401.998 172.934 401.064 171.812 401.064 169.747C401.064 167.682 401.998 166.561 403.252 166.561C404.502 166.561 405.439 167.682 405.439 169.747Z"
          fill="white"/>
    <path d="M408.733 166.61H410.998V173.985H412.092V166.61H414.361V165.509H408.733V166.61Z" fill="white"/>
    <path d="M417.105 173.985H421.707V172.884H418.202V170.289H421.427V169.193H418.202V166.61H421.665V165.509H417.105V173.985Z"
          fill="white"/>
    <path d="M424.08 173.985H424.393C426.047 173.985 426.445 172.553 426.541 169.83L426.655 166.594H429.137V173.985H430.22V165.509H425.621L425.497 169.49C425.419 171.944 425.163 172.843 424.293 172.867L424.08 172.876V173.985Z"
          fill="white"/>
    <path d="M434.426 168.928V165.509H433.325V173.985H436.049C437.668 173.985 438.595 172.934 438.591 171.415C438.595 169.9 437.668 168.928 436.049 168.928H434.426ZM434.426 170.004H436.049C436.99 170.004 437.508 170.633 437.508 171.398C437.508 172.185 436.99 172.909 436.049 172.909H434.426V170.004Z"
          fill="white"/>
    <path d="M441.429 173.985H442.527V170.289H446.152V173.985H447.253V165.509H446.152V169.193H442.527V165.509H441.429V173.985Z"
          fill="white"/>
    <path d="M450.351 165.509V173.985H451.36L455.056 167.769H455.124V173.985H456.221V165.509H455.206L451.505 171.733H451.438V165.509H450.351Z"
          fill="white"/>
    <path d="M459.467 165.509V168.307C459.464 170.198 460.448 170.943 462.039 170.943C462.738 170.943 463.342 170.84 463.864 170.666V173.985H464.95V165.509H463.864V169.573C463.32 169.743 462.646 169.846 462.039 169.846C461.09 169.846 460.551 169.474 460.551 168.307V165.509H459.467Z"
          fill="white"/>
    <path d="M471.265 169.213H468.04V170.285H471.265V169.213Z" fill="white"/>
    <path d="M476.723 165.509H475.7C475.661 165.741 475.107 166.813 474.045 166.813V167.864C474.869 167.864 475.441 167.483 475.561 167.235H475.622V173.985H476.723V165.509Z"
          fill="white"/>
    <path d="M528.336 210.955H523.801V219.43H524.898V212.056H528.336V210.955Z" fill="white"/>
    <path d="M530.522 219.43H530.835C532.489 219.43 532.887 217.999 532.983 215.276L533.097 212.039H535.579V219.43H536.662V210.955H532.063L531.939 214.936C531.861 217.39 531.605 218.288 530.735 218.313L530.522 218.321V219.43Z"
          fill="white"/>
    <path d="M540.374 219.43L541.042 217.188H543.883L544.547 219.43H545.712L543.095 210.955H541.827L539.21 219.43H540.374ZM541.362 216.112L542.434 212.495H542.491L543.563 216.112H541.362Z"
          fill="white"/>
    <path d="M550.694 219.546C552.179 219.546 553.269 218.512 553.266 217.105C553.269 216.033 552.712 215.263 551.746 215.089V215.023C552.506 214.796 552.999 214.1 552.996 213.149C552.999 211.903 552.122 210.839 550.723 210.839C549.388 210.839 548.315 211.779 548.28 213.157H549.342C549.366 212.379 549.995 211.907 550.709 211.907C551.451 211.907 551.937 212.433 551.934 213.215C551.937 214.034 551.373 214.572 550.567 214.572H549.952V215.615H550.567C551.575 215.615 552.158 216.211 552.158 217.063C552.158 217.887 551.543 218.446 550.687 218.446C549.899 218.446 549.285 217.974 549.242 217.221H548.127C548.173 218.603 549.224 219.546 550.694 219.546Z"
          fill="white"/>
    <path d="M562.525 215.193C562.525 212.482 561.133 210.839 559.251 210.839C557.361 210.839 555.973 212.482 555.973 215.193C555.973 217.899 557.361 219.546 559.251 219.546C561.133 219.546 562.525 217.903 562.525 215.193ZM561.438 215.193C561.438 217.258 560.501 218.379 559.251 218.379C557.997 218.379 557.063 217.258 557.063 215.193C557.063 213.128 557.997 212.006 559.251 212.006C560.501 212.006 561.438 213.128 561.438 215.193Z"
          fill="white"/>
    <path d="M565.393 219.43H568.18C569.871 219.43 570.634 218.45 570.634 217.15C570.634 215.838 569.846 215.098 569.125 215.052V214.969C569.793 214.771 570.35 214.241 570.35 213.182C570.35 211.928 569.604 210.955 568.056 210.955H565.393V219.43ZM566.49 218.334V215.619H568.113C568.994 215.619 569.544 216.281 569.544 217.088C569.544 217.8 569.129 218.334 568.074 218.334H566.49ZM566.49 214.622V212.044H567.989C568.859 212.044 569.274 212.577 569.274 213.281C569.274 214.1 568.699 214.622 567.96 214.622H566.49Z"
          fill="white"/>
    <path d="M531.567 135.817H525.957V144.293H527.05V136.91H530.474V144.293H531.567V135.817Z" fill="white"/>
    <path d="M534.745 144.293H539.348V143.192H535.843V140.597H539.067V139.5H535.843V136.918H539.305V135.817H534.745V144.293Z"
          fill="white"/>
    <path d="M542.271 144.293H543.368V141.313H544.859C546.546 141.313 547.381 140.125 547.381 138.561C547.381 137.001 546.553 135.817 544.863 135.817H542.271V144.293ZM543.368 140.229V136.914H544.746C545.832 136.914 546.276 137.601 546.276 138.561C546.276 139.521 545.832 140.229 544.76 140.229H543.368Z"
          fill="white"/>
    <path d="M550.167 135.817V144.293H551.211V138.156H551.279L553.424 144.28H554.29L556.435 138.16H556.502V144.293H557.546V135.817H556.215L553.899 142.406H553.814L551.499 135.817H550.167Z"
          fill="white"/>
    <path d="M561.935 139.236V135.817H560.834V144.293H563.558C565.177 144.293 566.104 143.242 566.101 141.723C566.104 140.208 565.177 139.236 563.558 139.236H561.935ZM561.935 140.312H563.558C564.499 140.312 565.018 140.941 565.018 141.706C565.018 142.492 564.499 143.217 563.558 143.217H561.935V140.312Z"
          fill="white"/>
    <path d="M598.442 180.592H600.707V187.966H601.801V180.592H604.07V179.491H598.442V180.592Z" fill="white"/>
    <path d="M607.911 179.491H606.814V187.966H607.911V184.366H609.186C609.385 186.692 610.699 188.082 612.435 188.082C614.318 188.082 615.71 186.439 615.71 183.729C615.71 181.018 614.318 179.375 612.435 179.375C610.649 179.375 609.31 180.844 609.168 183.294H607.911V179.491ZM614.623 183.729C614.623 185.794 613.685 186.915 612.435 186.915C611.182 186.915 610.248 185.794 610.248 183.729C610.248 181.663 611.182 180.542 612.435 180.542C613.685 180.542 614.623 181.663 614.623 183.729Z"
          fill="white"/>
    <path d="M618.392 179.491V187.966H619.436V181.829H619.504L621.649 187.954H622.515L624.66 181.833H624.727V187.966H625.771V179.491H624.44L622.124 186.079H622.039L619.724 179.491H618.392Z"
          fill="white"/>
    <path d="M629.052 187.966H633.655V186.865H630.15V184.271H633.374V183.174H630.15V180.592H633.612V179.491H629.052V187.966Z"
          fill="white"/>
    <path d="M636.578 187.966H637.675V184.271H641.301V187.966H642.402V179.491H641.301V183.174H637.675V179.491H636.578V187.966Z"
          fill="white"/>
    <path d="M646.607 182.909V179.491H645.507V187.966H648.23C649.85 187.966 650.777 186.915 650.773 185.396C650.777 183.882 649.85 182.909 648.23 182.909H646.607ZM646.607 183.985H648.23C649.171 183.985 649.69 184.614 649.69 185.38C649.69 186.166 649.171 186.89 648.23 186.89H646.607V183.985Z"
          fill="white"/>
    <path d="M697.457 209.364C697.457 206.654 696.064 205.011 694.182 205.011C692.293 205.011 690.905 206.654 690.905 209.364C690.905 212.071 692.293 213.718 694.182 213.718C696.064 213.718 697.457 212.075 697.457 209.364ZM696.37 209.364C696.37 211.429 695.432 212.551 694.182 212.551C692.929 212.551 691.995 211.429 691.995 209.364C691.995 207.299 692.929 206.178 694.182 206.178C695.432 206.178 696.37 207.299 696.37 209.364Z"
          fill="white"/>
    <path d="M700.325 205.127V213.602H701.369V207.465H701.436L703.581 213.589H704.447L706.592 207.469H706.66V213.602H707.704V205.127H706.372L704.057 211.715H703.972L701.656 205.127H700.325Z"
          fill="white"/>
    <path d="M717.025 207.883C716.777 206.07 715.559 205.011 714.021 205.011C712.139 205.011 710.75 206.654 710.75 209.364C710.75 212.075 712.132 213.718 714.021 213.718C715.619 213.718 716.787 212.551 717.025 210.875L715.917 210.871C715.729 211.955 714.948 212.551 714.028 212.551C712.782 212.551 711.841 211.438 711.841 209.364C711.841 207.308 712.778 206.178 714.032 206.178C714.958 206.178 715.736 206.786 715.917 207.883H717.025Z"
          fill="white"/>
    <path d="M724.146 213.602H725.485L722.484 208.959L725.502 205.127H724.142L721.312 208.706H720.936V205.127H719.838V213.602H720.936V209.803H721.688L724.146 213.602Z"
          fill="white"/>
    <path d="M805.381 121.541H806.72L803.719 116.898L806.738 113.066H805.378L802.547 116.646H802.171V113.066H801.074V121.541H802.171V117.742H802.924L805.381 121.541Z"
          fill="white"/>
    <path d="M809.332 121.541H810.429V118.562H811.92C813.607 118.562 814.442 117.374 814.442 115.81C814.442 114.25 813.614 113.066 811.924 113.066H809.332V121.541ZM810.429 117.478V114.163H811.807C812.893 114.163 813.337 114.85 813.337 115.81C813.337 116.77 812.893 117.478 811.821 117.478H810.429Z"
          fill="white"/>
    <path d="M817.071 121.541L817.739 119.298H820.579L821.243 121.541H822.408L819.791 113.066H818.523L815.906 121.541H817.071ZM818.058 118.222L819.131 114.606H819.187L820.26 118.222H818.058Z"
          fill="white"/>
    <path d="M830.657 115.822C830.409 114.01 829.191 112.95 827.653 112.95C825.771 112.95 824.382 114.593 824.382 117.304C824.382 120.014 825.764 121.657 827.653 121.657C829.251 121.657 830.419 120.49 830.657 118.814L829.549 118.81C829.361 119.894 828.58 120.49 827.66 120.49C826.414 120.49 825.473 119.377 825.473 117.304C825.473 115.247 826.41 114.117 827.664 114.117C828.59 114.117 829.368 114.726 829.549 115.822H830.657Z"
          fill="white"/>
    <path d="M833.47 121.541H834.568V117.846H838.193V121.541H839.294V113.066H838.193V116.749H834.568V113.066H833.47V121.541Z"
          fill="white"/>
    <path d="M848.71 117.304C848.71 114.593 847.318 112.95 845.435 112.95C843.546 112.95 842.158 114.593 842.158 117.304C842.158 120.01 843.546 121.657 845.435 121.657C847.318 121.657 848.71 120.014 848.71 117.304ZM847.623 117.304C847.623 119.369 846.685 120.49 845.435 120.49C844.182 120.49 843.248 119.369 843.248 117.304C843.248 115.239 844.182 114.117 845.435 114.117C846.685 114.117 847.623 115.239 847.623 117.304Z"
          fill="white"/>
    <path d="M856.428 121.541V113.066H853.836C852.149 113.066 851.318 114.163 851.318 115.723C851.318 116.861 851.762 117.726 852.654 118.111L851.041 121.541H852.291L853.769 118.334C853.794 118.334 853.815 118.334 853.84 118.334H855.331V121.541H856.428ZM855.331 117.233H853.939C852.87 117.233 852.423 116.679 852.423 115.723C852.423 114.763 852.87 114.163 853.953 114.163H855.331V117.233Z"
          fill="white"/>
    <path d="M859.523 121.541H860.62V118.562H862.112C863.799 118.562 864.633 117.374 864.633 115.81C864.633 114.25 863.806 113.066 862.115 113.066H859.523V121.541ZM860.62 117.478V114.163H861.998C863.085 114.163 863.529 114.85 863.529 115.81C863.529 116.77 863.085 117.478 862.012 117.478H860.62Z"
          fill="white"/>
    <path d="M873.46 115.822C873.211 114.01 871.993 112.95 870.456 112.95C868.574 112.95 867.185 114.593 867.185 117.304C867.185 120.014 868.566 121.657 870.456 121.657C872.054 121.657 873.222 120.49 873.46 118.814L872.352 118.81C872.164 119.894 871.383 120.49 870.463 120.49C869.216 120.49 868.275 119.377 868.275 117.304C868.275 115.247 869.213 114.117 870.466 114.117C871.393 114.117 872.171 114.726 872.352 115.822H873.46Z"
          fill="white"/>
    <path d="M880.58 121.541H881.919L878.919 116.898L881.937 113.066H880.577L877.747 116.646H877.37V113.066H876.273V121.541H877.37V117.742H878.123L880.58 121.541Z"
          fill="white"/>
    <path d="M875.895 188.082H876.392C877.529 188.082 877.905 187.341 878.225 186.497L880.739 179.491H879.588L877.891 184.391L875.984 179.491H874.819L877.376 185.851L877.273 186.154C877.117 186.596 876.875 186.956 876.332 186.956H875.895V188.082Z"
          fill="white"/>
    <path d="M882.726 187.966H883.039C884.694 187.966 885.091 186.534 885.187 183.811L885.301 180.575H887.783V187.966H888.866V179.491H884.267L884.143 183.472C884.065 185.926 883.809 186.824 882.939 186.849L882.726 186.857V187.966Z"
          fill="white"/>
    <path d="M892.579 187.966L893.246 185.723H896.087L896.751 187.966H897.916L895.299 179.491H894.031L891.414 187.966H892.579ZM893.566 184.647L894.638 181.03H894.695L895.767 184.647H893.566Z"
          fill="white"/>
    <path d="M900.466 187.966H901.563V184.271H905.189V187.966H906.29V179.491H905.189V183.174H901.563V179.491H900.466V187.966Z"
          fill="white"/>
    <path d="M912.517 183.195H909.292V184.266H912.517V183.195Z" fill="white"/>
    <path d="M915.397 188.082H915.894C917.031 188.082 917.407 187.341 917.727 186.497L920.241 179.491H919.09L917.393 184.391L915.486 179.491H914.321L916.878 185.851L916.775 186.154C916.619 186.596 916.377 186.956 915.834 186.956H915.397V188.082Z"
          fill="white"/>
    <path d="M922.228 190.015H923.279V187.966H928.162V190.002H929.213V186.882H928.389V179.491H923.904L923.734 183.071C923.624 185.429 923.194 186.402 922.708 186.882H922.228V190.015ZM924 186.882C924.416 186.108 924.696 184.862 924.785 183.071L924.899 180.592H927.338V186.882H924Z"
          fill="white"/>
    <path d="M931.685 185.276C931.823 186.882 932.725 188.082 934.479 188.082C936.234 188.082 937.356 186.555 937.356 184.18V183.298C937.356 180.923 936.219 179.375 934.419 179.375C932.707 179.375 931.823 180.592 931.681 182.23H932.8C932.913 181.13 933.357 180.476 934.419 180.476C935.587 180.476 936.241 181.577 936.244 183.29H933.563V184.374H936.241C936.194 185.868 935.633 186.998 934.479 186.998C933.389 186.998 932.924 186.394 932.8 185.276H931.685Z"
          fill="white"/>
    <path d="M106.746 39.193C106.746 41.4411 105.182 43.2635 103.253 43.2635C101.324 43.2635 99.7601 41.4411 99.7601 39.193C99.7601 36.945 101.324 35.1226 103.253 35.1226C105.182 35.1226 106.746 36.945 106.746 39.193Z"
          fill="#272722"/>
    <path fill-rule="evenodd" clip-rule="evenodd"
          d="M103.253 42.0981C104.63 42.0981 105.746 40.7975 105.746 39.193C105.746 37.5886 104.63 36.2879 103.253 36.2879C101.876 36.2879 100.76 37.5886 100.76 39.193C100.76 40.7975 101.876 42.0981 103.253 42.0981ZM103.253 43.2635C105.182 43.2635 106.746 41.4411 106.746 39.193C106.746 36.945 105.182 35.1226 103.253 35.1226C101.324 35.1226 99.7601 36.945 99.7601 39.193C99.7601 41.4411 101.324 43.2635 103.253 43.2635Z"
          fill="white"/>
    <path d="M20.9851 133.771C20.9851 136.019 19.4213 137.841 17.4922 137.841C15.5631 137.841 13.9993 136.019 13.9993 133.771C13.9993 131.523 15.5631 129.7 17.4922 129.7C19.4213 129.7 20.9851 131.523 20.9851 133.771Z"
          fill="#131313"/>
    <path fill-rule="evenodd" clip-rule="evenodd"
          d="M17.4922 136.676C18.869 136.676 19.9851 135.375 19.9851 133.771C19.9851 132.166 18.869 130.866 17.4922 130.866C16.1154 130.866 14.9993 132.166 14.9993 133.771C14.9993 135.375 16.1154 136.676 17.4922 136.676ZM17.4922 137.841C19.4213 137.841 20.9851 136.019 20.9851 133.771C20.9851 131.523 19.4213 129.7 17.4922 129.7C15.5631 129.7 13.9993 131.523 13.9993 133.771C13.9993 136.019 15.5631 137.841 17.4922 137.841Z"
          fill="white"/>
    <path d="M215.023 181.659C215.023 183.907 213.459 185.729 211.53 185.729C209.601 185.729 208.037 183.907 208.037 181.659C208.037 179.411 209.601 177.588 211.53 177.588C213.459 177.588 215.023 179.411 215.023 181.659Z"
          fill="#4D5648"/>
    <path fill-rule="evenodd" clip-rule="evenodd"
          d="M211.53 184.564C212.907 184.564 214.023 183.263 214.023 181.659C214.023 180.054 212.907 178.754 211.53 178.754C210.153 178.754 209.037 180.054 209.037 181.659C209.037 183.263 210.153 184.564 211.53 184.564ZM211.53 185.729C213.459 185.729 215.023 183.907 215.023 181.659C215.023 179.411 213.459 177.588 211.53 177.588C209.601 177.588 208.037 179.411 208.037 181.659C208.037 183.907 209.601 185.729 211.53 185.729Z"
          fill="white"/>
    <path d="M247.335 207.102C247.335 209.35 245.771 211.173 243.842 211.173C241.913 211.173 240.349 209.35 240.349 207.102C240.349 204.854 241.913 203.032 243.842 203.032C245.771 203.032 247.335 204.854 247.335 207.102Z"
          fill="#47443E"/>
    <path fill-rule="evenodd" clip-rule="evenodd"
          d="M243.842 210.007C245.219 210.007 246.335 208.707 246.335 207.102C246.335 205.498 245.219 204.197 243.842 204.197C242.465 204.197 241.349 205.498 241.349 207.102C241.349 208.707 242.465 210.007 243.842 210.007ZM243.842 211.173C245.771 211.173 247.335 209.35 247.335 207.102C247.335 204.854 245.771 203.032 243.842 203.032C241.913 203.032 240.349 204.854 240.349 207.102C240.349 209.35 241.913 211.173 243.842 211.173Z"
          fill="white"/>
    <path d="M335.531 148.079C335.531 150.327 333.967 152.15 332.038 152.15C330.109 152.15 328.545 150.327 328.545 148.079C328.545 145.831 330.109 144.009 332.038 144.009C333.967 144.009 335.531 145.831 335.531 148.079Z"
          fill="#93A47C"/>
    <path fill-rule="evenodd" clip-rule="evenodd"
          d="M332.038 150.984C333.415 150.984 334.531 149.684 334.531 148.079C334.531 146.475 333.415 145.174 332.038 145.174C330.661 145.174 329.545 146.475 329.545 148.079C329.545 149.684 330.661 150.984 332.038 150.984ZM332.038 152.15C333.967 152.15 335.531 150.327 335.531 148.079C335.531 145.831 333.967 144.009 332.038 144.009C330.109 144.009 328.545 145.831 328.545 148.079C328.545 150.327 330.109 152.15 332.038 152.15Z"
          fill="white"/>
    <path d="M413.249 187.767C413.249 190.015 411.686 191.837 409.756 191.837C407.827 191.837 406.264 190.015 406.264 187.767C406.264 185.519 407.827 183.696 409.756 183.696C411.686 183.696 413.249 185.519 413.249 187.767Z"
          fill="#738F8C"/>
    <path fill-rule="evenodd" clip-rule="evenodd"
          d="M409.756 190.672C411.133 190.672 412.249 189.371 412.249 187.767C412.249 186.162 411.133 184.862 409.756 184.862C408.38 184.862 407.264 186.162 407.264 187.767C407.264 189.371 408.38 190.672 409.756 190.672ZM409.756 191.837C411.686 191.837 413.249 190.015 413.249 187.767C413.249 185.519 411.686 183.696 409.756 183.696C407.827 183.696 406.264 185.519 406.264 187.767C406.264 190.015 407.827 191.837 409.756 191.837Z"
          fill="white"/>
    <path d="M515.415 215.244C515.415 217.492 513.851 219.314 511.922 219.314C509.993 219.314 508.429 217.492 508.429 215.244C508.429 212.996 509.993 211.173 511.922 211.173C513.851 211.173 515.415 212.996 515.415 215.244Z"
          fill="#789186"/>
    <path fill-rule="evenodd" clip-rule="evenodd"
          d="M511.922 218.149C513.299 218.149 514.415 216.848 514.415 215.244C514.415 213.639 513.299 212.339 511.922 212.339C510.545 212.339 509.429 213.639 509.429 215.244C509.429 216.848 510.545 218.149 511.922 218.149ZM511.922 219.314C513.851 219.314 515.415 217.492 515.415 215.244C515.415 212.996 513.851 211.173 511.922 211.173C509.993 211.173 508.429 212.996 508.429 215.244C508.429 217.492 509.993 219.314 511.922 219.314Z"
          fill="white"/>
    <path d="M548.597 155.206C548.597 157.454 547.033 159.276 545.104 159.276C543.175 159.276 541.611 157.454 541.611 155.206C541.611 152.958 543.175 151.135 545.104 151.135C547.033 151.135 548.597 152.958 548.597 155.206Z"
          fill="#8CBABB"/>
    <path fill-rule="evenodd" clip-rule="evenodd"
          d="M545.104 158.111C546.481 158.111 547.597 156.81 547.597 155.206C547.597 153.601 546.481 152.301 545.104 152.301C543.727 152.301 542.611 153.601 542.611 155.206C542.611 156.81 543.727 158.111 545.104 158.111ZM545.104 159.276C547.033 159.276 548.597 157.454 548.597 155.206C548.597 152.958 547.033 151.135 545.104 151.135C543.175 151.135 541.611 152.958 541.611 155.206C541.611 157.454 543.175 159.276 545.104 159.276Z"
          fill="white"/>
    <path d="M605.355 200.998C605.355 203.246 603.791 205.068 601.862 205.068C599.933 205.068 598.369 203.246 598.369 200.998C598.369 198.75 599.933 196.927 601.862 196.927C603.791 196.927 605.355 198.75 605.355 200.998Z"
          fill="#414847"/>
    <path fill-rule="evenodd" clip-rule="evenodd"
          d="M601.862 203.903C603.239 203.903 604.355 202.602 604.355 200.998C604.355 199.393 603.239 198.093 601.862 198.093C600.485 198.093 599.369 199.393 599.369 200.998C599.369 202.602 600.485 203.903 601.862 203.903ZM601.862 205.068C603.791 205.068 605.355 203.246 605.355 200.998C605.355 198.75 603.791 196.927 601.862 196.927C599.933 196.927 598.369 198.75 598.369 200.998C598.369 203.246 599.933 205.068 601.862 205.068Z"
          fill="white"/>
    <path d="M711.02 185.731C711.02 187.979 709.456 189.801 707.527 189.801C705.598 189.801 704.034 187.979 704.034 185.731C704.034 183.483 705.598 181.66 707.527 181.66C709.456 181.66 711.02 183.483 711.02 185.731Z"
          fill="#577379"/>
    <path fill-rule="evenodd" clip-rule="evenodd"
          d="M707.527 188.636C708.904 188.636 710.02 187.335 710.02 185.731C710.02 184.126 708.904 182.826 707.527 182.826C706.15 182.826 705.034 184.126 705.034 185.731C705.034 187.335 706.15 188.636 707.527 188.636ZM707.527 189.801C709.456 189.801 711.02 187.979 711.02 185.731C711.02 183.483 709.456 181.66 707.527 181.66C705.598 181.66 704.034 183.483 704.034 185.731C704.034 187.979 705.598 189.801 707.527 189.801Z"
          fill="white"/>
    <path d="M845.95 130.78C845.95 133.028 844.386 134.85 842.457 134.85C840.528 134.85 838.964 133.028 838.964 130.78C838.964 128.532 840.528 126.709 842.457 126.709C844.386 126.709 845.95 128.532 845.95 130.78Z"
          fill="#3E403A"/>
    <path fill-rule="evenodd" clip-rule="evenodd"
          d="M842.457 133.685C843.834 133.685 844.95 132.384 844.95 130.78C844.95 129.175 843.834 127.875 842.457 127.875C841.08 127.875 839.964 129.175 839.964 130.78C839.964 132.384 841.08 133.685 842.457 133.685ZM842.457 134.85C844.386 134.85 845.95 133.028 845.95 130.78C845.95 128.532 844.386 126.709 842.457 126.709C840.528 126.709 838.964 128.532 838.964 130.78C838.964 133.028 840.528 134.85 842.457 134.85Z"
          fill="white"/>
    <path d="M908.988 162.902C908.988 165.151 907.424 166.973 905.495 166.973C903.566 166.973 902.002 165.151 902.002 162.902C902.002 160.654 903.566 158.832 905.495 158.832C907.424 158.832 908.988 160.654 908.988 162.902Z"
          fill="#181A19"/>
    <path fill-rule="evenodd" clip-rule="evenodd"
          d="M905.495 165.808C906.872 165.808 907.988 164.507 907.988 162.902C907.988 161.298 906.872 159.997 905.495 159.997C904.118 159.997 903.002 161.298 903.002 162.902C903.002 164.507 904.118 165.808 905.495 165.808ZM905.495 166.973C907.424 166.973 908.988 165.151 908.988 162.902C908.988 160.654 907.424 158.832 905.495 158.832C903.566 158.832 902.002 160.654 902.002 162.902C902.002 165.151 903.566 166.973 905.495 166.973Z"
          fill="white"/>
</svg>
